<svg width="194" height="69" viewBox="0 0 194 69" fill="none" xmlns="http://www.w3.org/2000/svg"><path d="M66.376 24.849v15.84h-4.244V24.85zm-2.152-8.16q1.136 0 1.853.718.748.687.748 1.763t-.748 1.793q-.717.688-1.853.688t-1.853-.687q-.717-.718-.717-1.794t.717-1.763q.717-.718 1.853-.718m14.891 7.681q2.093.001 3.258 1.286 1.166 1.256 1.166 3.497V40.69h-4.244V29.87q0-1.285-.449-1.793-.418-.538-1.285-.538-.897 0-1.644.568-.717.538-1.404 1.644V40.69h-4.245V24.849h3.677l.329 2.003q.985-1.226 2.151-1.854 1.196-.627 2.69-.627m13.423-.001q3.348 0 5.739 1.914l-1.614 2.42q-2.002-1.255-3.945-1.255-1.047 0-1.614.389t-.568 1.046q0 .479.239.807.27.329.956.628.718.299 2.123.717 2.51.687 3.736 1.853 1.224 1.136 1.225 3.138 0 1.584-.927 2.75-.896 1.166-2.45 1.793-1.555.598-3.468.598-2.002 0-3.646-.598-1.643-.627-2.81-1.703l2.093-2.332q2.003 1.555 4.244 1.555 1.196 0 1.883-.449.717-.478.717-1.285 0-.627-.269-.986-.27-.36-.986-.658-.717-.329-2.242-.747-2.391-.657-3.556-1.853-1.136-1.225-1.136-3.019 0-1.344.777-2.42.777-1.077 2.182-1.675 1.434-.627 3.317-.627m17.59-.001q2.063.001 3.228 1.286 1.196 1.256 1.196 3.497V40.69h-4.244V29.87q0-1.285-.449-1.793-.448-.538-1.285-.538-1.674 0-3.049 2.182V40.69h-4.244V18.543l4.244-.449v8.548q.957-1.136 2.063-1.703 1.136-.568 2.54-.568m14.828-.001q3.556 0 5.559 2.242 2.003 2.212 2.003 6.157 0 2.511-.927 4.424-.897 1.883-2.63 2.929-1.704 1.046-4.035 1.046-3.556 0-5.589-2.212-2.003-2.24-2.003-6.187 0-2.51.897-4.393.926-1.913 2.63-2.96 1.734-1.045 4.095-1.045m0 3.169q-1.614 0-2.421 1.285-.777 1.255-.777 3.945t.777 3.976Q123.342 38 124.926 38t2.361-1.255q.807-1.285.807-3.976t-.777-3.945q-.777-1.285-2.361-1.285m18.68-3.139q.717 0 1.584.24c.578.16-.717 4.095-.717 4.095q-.837-.21-1.405-.21-1.405 0-2.182.987-.777.985-1.226 2.988v8.19h-4.244V24.849h3.677l.388 3.078q.569-1.673 1.644-2.6 1.105-.927 2.481-.926m13.983 15.542a6.4 6.4 0 0 1-1.973.896 7.3 7.3 0 0 1-2.151.33q-2.451-.031-3.707-1.406t-1.255-4.035v-7.89h-2.361v-2.989h2.361v-3.467l4.244-.508v3.975h3.647l-.419 2.989h-3.228v7.8q0 1.137.389 1.645.388.508 1.195.508t1.794-.538zm7.524-15.573q3.347 0 5.739 1.914l-1.614 2.42q-2.003-1.255-3.946-1.255-1.046 0-1.614.389-.567.389-.568 1.046 0 .479.24.807.269.329.956.628.718.299 2.122.717 2.51.687 3.736 1.853 1.226 1.136 1.226 3.138 0 1.584-.927 2.75-.897 1.166-2.451 1.793-1.554.598-3.467.598-2.002 0-3.646-.598-1.644-.627-2.81-1.703l2.092-2.332q2.003 1.555 4.244 1.555 1.196 0 1.883-.449.718-.478.718-1.285 0-.627-.269-.986-.27-.36-.987-.658-.717-.329-2.241-.747-2.391-.657-3.557-1.853-1.136-1.225-1.136-3.019 0-1.344.777-2.42.778-1.077 2.182-1.675 1.435-.627 3.318-.627M118.41 45.616q.534 0 .934.178.399.17.729.507l-.338.329a1.7 1.7 0 0 0-.605-.427 1.8 1.8 0 0 0-.72-.133q-.64 0-1.041.32a1 1 0 0 0-.4.827q0 .418.267.658.276.24.969.471.774.24 1.156.614.392.364.392 1.023 0 .48-.24.915-.242.436-.756.72-.507.285-1.263.285a2.55 2.55 0 0 1-1.058-.204 2.5 2.5 0 0 1-.792-.578l.338-.32q.303.32.667.48t.854.16q.56 0 .942-.205.382-.204.57-.524.186-.33.186-.703 0-.462-.275-.729-.276-.276-.961-.507-.817-.275-1.174-.614-.355-.338-.355-.924 0-.41.231-.783a1.7 1.7 0 0 1 .676-.605q.453-.23 1.067-.23m3.078 5.041q-.018.16-.018.223 0 .578.551.578.339 0 .756-.223l.178.383q-.48.285-.996.284-.471 0-.738-.249-.267-.258-.267-.729 0-.09.018-.267l.436-3.085h-.783l.062-.418h.792l.258-1.13.409-.044-.169 1.174h1.2l-.124.418h-1.129zm4.378-3.601q.435 0 .782.098t.712.284l-.489 3.353a1.6 1.6 0 0 0-.018.267q0 .186.062.302a.53.53 0 0 0 .231.178l-.151.364q-.31-.07-.471-.258-.16-.195-.151-.587-.267.392-.641.623a1.5 1.5 0 0 1-.791.222q-.693 0-1.085-.48-.382-.49-.382-1.325 0-.694.249-1.396.25-.702.782-1.174.543-.471 1.361-.471m.018.418q-.632 0-1.059.409-.418.409-.613 1.014a4 4 0 0 0-.187 1.2q0 .675.258 1.023.258.345.738.346.419 0 .747-.248.338-.25.64-.73l.4-2.8a2.04 2.04 0 0 0-.924-.214m4.034 4.366q-.382.8-.854 1.21-.471.417-1.307.569l-.026-.41q.471-.106.764-.275a1.5 1.5 0 0 0 .48-.427q.196-.249.436-.703h-.195l-.952-4.65h.551l.792 4.26 1.974-4.26h.551zm6.075-4.686-.658 4.65h-.515l.658-4.65zm-.053-1.299a.37.37 0 0 1-.258-.089.34.34 0 0 1-.098-.248q0-.18.116-.294a.43.43 0 0 1 .302-.116q.16 0 .258.098a.31.31 0 0 1 .098.24.38.38 0 0 1-.124.294.4.4 0 0 1-.294.115m3.918 1.201q.524 0 .809.293.284.294.284.836 0 .16-.026.338l-.463 3.281h-.515l.462-3.263q.018-.107.018-.294 0-.755-.676-.755-.898 0-1.725 1.53l-.391 2.782h-.516l.658-4.65h.444l-.124 1.156q.365-.605.809-.925.445-.33.952-.33m4.606-1.431q-.835 0-.942.792l-.107.738h1.218l-.115.418h-1.156l-.569 4.081q-.09.604-.267.96a1.6 1.6 0 0 1-.462.57 4 4 0 0 1-.774.436l-.16-.4q.365-.17.578-.339.213-.168.356-.462.142-.284.213-.782l.569-4.064h-.809l.062-.418h.809l.107-.774q.071-.551.454-.871.381-.32.978-.32.293 0 .542.08t.507.24l-.205.355a1.6 1.6 0 0 0-.827-.24m2.006 6.278q-.8 0-1.245-.498-.435-.498-.435-1.387 0-.667.231-1.343.231-.684.747-1.147.525-.471 1.343-.471.808 0 1.245.489.435.489.435 1.378 0 .659-.231 1.343a2.67 2.67 0 0 1-.747 1.165q-.524.471-1.343.471m.018-.435q.632 0 1.023-.41.4-.408.569-.995.17-.597.169-1.174 0-.694-.294-1.05-.293-.355-.853-.355-.64 0-1.041.418a2.3 2.3 0 0 0-.569 1.005 4.3 4.3 0 0 0-.169 1.156q0 .693.303 1.049.302.355.862.355m5.81-4.41q.258 0 .445.062l-.143.49a1.2 1.2 0 0 0-.373-.054q-.49 0-.845.4-.347.4-.649 1.2l-.383 2.65h-.515l.658-4.65h.444l-.115 1.129q.541-1.227 1.476-1.227m5.976 0q.463 0 .721.302.267.293.266.818 0 .143-.026.32l-.471 3.308h-.516l.462-3.263q.027-.178.027-.32 0-.73-.614-.73-.408 0-.791.4-.382.4-.774 1.103l-.4 2.81h-.516l.463-3.263q.026-.178.026-.32 0-.73-.613-.73-.418 0-.801.41-.373.4-.764 1.12l-.392 2.783h-.515l.658-4.65h.444l-.124 1.147q.747-1.245 1.645-1.245.453 0 .72.302.276.302.267.854.72-1.155 1.618-1.156m5.902 1.12q0 .854-.836 1.272-.836.41-2.374.525v.053q0 .73.311 1.076.32.347.871.347.365 0 .667-.107.312-.116.649-.356l.232.365a3 3 0 0 1-.765.418 2.5 2.5 0 0 1-.818.133q-.801 0-1.245-.489t-.445-1.378q0-.702.249-1.387.258-.685.792-1.139.542-.453 1.333-.453.65 0 1.014.32.365.31.365.8m-1.379-.693q-.8 0-1.253.613-.446.614-.552 1.468 1.334-.108 1.992-.427.658-.32.658-.943a.68.68 0 0 0-.213-.507q-.213-.204-.632-.204m6.321-2.224-.925 6.545h-.444l.071-.942a2.5 2.5 0 0 1-.658.756q-.382.285-.88.284-.677 0-1.059-.489-.373-.489-.373-1.343 0-.675.222-1.369.222-.693.712-1.165.489-.48 1.245-.48.79 0 1.227.64l.355-2.499zm-2.018 2.224q-.597 0-.987.418-.382.408-.552 1.013a4.3 4.3 0 0 0-.169 1.183q0 .668.249 1.023a.84.84 0 0 0 .712.346q.48 0 .836-.32.355-.32.72-.951l.293-2.028a1.6 1.6 0 0 0-.453-.498q-.258-.186-.649-.186M53.682 19.976c-.372-1.959-1.468-3.501-2.86-4.025C48.298 15 38.179 15 38.179 15s-10.119 0-12.642.951c-1.392.524-2.489 2.066-2.861 4.025C22 23.526 22 30.933 22 30.933s0 7.406.676 10.956c.372 1.958 1.469 3.501 2.86 4.024 2.524.952 12.643.952 12.643.952s10.119 0 12.643-.952c1.392-.523 2.488-2.065 2.86-4.024.677-3.55.677-10.957.677-10.957s0-7.406-.677-10.956" fill="#081131"/><path d="M29.163 23.892c0-1.091.885-1.976 1.976-1.976h7.41a1.976 1.976 0 1 1 0 3.952h-7.41a1.976 1.976 0 0 1-1.976-1.976m18.527 0a2.223 2.223 0 1 1-4.447 0 2.223 2.223 0 0 1 4.446 0m.001 7.163a2.223 2.223 0 1 1-4.447 0 2.223 2.223 0 0 1 4.446 0m.001 7.164a2.223 2.223 0 1 1-4.447 0 2.223 2.223 0 0 1 4.446 0m-7.163-7.164a2.223 2.223 0 1 1-4.446 0 2.223 2.223 0 0 1 4.446 0m0 7.164a2.223 2.223 0 1 1-4.446 0 2.223 2.223 0 0 1 4.446 0m-7.163 0a2.223 2.223 0 1 1-4.447 0 2.223 2.223 0 0 1 4.446 0" fill="#fff"/></svg>
