<svg width="1156" height="300" viewBox="0 0 1156 300" fill="none" xmlns="http://www.w3.org/2000/svg">
  <g fill="#639">
    <path d="M0 150C0 64.463 65.455 0 152.231 0c86.777 0 152.232 64.71 152.232 150 0 85.289-65.455 150-152.232 150C65.455 300 0 235.537 0 150Zm152.231 70.909c39.67 0 69.174-30.496 68.678-70.909.496-40.413-29.256-70.91-68.678-70.91-39.421 0-69.173 30.497-68.925 70.91-.248 40.413 29.256 70.909 68.925 70.909ZM329.256 4.215H450c80.083 0 126.199 41.157 125.951 108.347.495 67.19-45.868 108.347-125.951 108.347h-4.215c-20.826 0-33.223 12.397-33.223 33.223v41.653h-83.306V4.215Zm116.777 150c30.496 0 46.612-15.868 46.612-41.653 0-25.785-16.364-41.653-46.612-41.653H412.81v83.306h33.223ZM588.595 150c0-88.017 61.239-150 148.016-150 84.298 0 143.802 61.983 143.802 150 0 8.43-.744 19.587-1.24 29.256H674.876c10.909 28.017 37.19 45.868 69.917 45.868 22.562 0 39.917-7.19 52.066-14.628 22.562-13.636 52.562-19.091 74.132 23.306C845.95 273.471 798.099 300 742.562 300c-76.86 0-153.967-50.083-153.967-150Zm208.264-29.256c-7.934-27.52-28.76-47.108-61.983-46.612-33.223-.496-53.306 19.091-61.24 46.612h123.223ZM1030.41 79.09c-24.54 0-39.666 17.604-39.666 45.869v170.826h-85.537V4.215h85.537V37.19C1006.12 13.388 1029.92 0 1060.66 0c59.26 0 94.71 42.397 94.71 113.058v149.504c0 20.826-12.39 33.223-33.22 33.223h-52.07V124.959c-.24-28.265-15.12-45.868-39.67-45.868Z"/>
  </g>
</svg>
